<svg width="295" height="89" viewBox="0 0 295 89" fill="none" xmlns="http://www.w3.org/2000/svg">
<path fill-rule="evenodd" clip-rule="evenodd" d="M58.375 59.325L64.9 26.55H48.775L47.575 32.775C45.675 28.125 41.5 25.8 35.05 25.8C31 25.8 27.275 26.775 23.875 28.725C20.525 30.675 17.875 33.325 15.925 36.675C13.975 39.975 13 43.625 13 47.625C13 51.175 13.825 54.3 15.475 57C17.125 59.7 19.3 61.775 22 63.225C24.7 64.625 27.6 65.325 30.7 65.325C34.8 65.325 38.25 64.025 41.05 61.425L40.825 62.475C40.325 65.075 39.275 67.025 37.675 68.325C36.125 69.625 33.775 70.275 30.625 70.275C28.175 70.275 25.725 69.9 23.275 69.15C20.875 68.45 18.85 67.475 17.2 66.225L10 77.775C15.15 81.175 21.925 82.875 30.325 82.875C37.975 82.875 44.15 80.975 48.85 77.175C53.6 73.425 56.775 67.475 58.375 59.325ZM31.675 50.625C30.625 49.625 30.1 48.35 30.1 46.8C30.1 44.5 30.775 42.65 32.125 41.25C33.475 39.85 35.25 39.15 37.45 39.15C39.3 39.15 40.75 39.65 41.8 40.65C42.85 41.6 43.375 42.85 43.375 44.4C43.375 46.7 42.7 48.55 41.35 49.95C40.05 51.35 38.3 52.05 36.1 52.05C34.25 52.05 32.775 51.575 31.675 50.625ZM111.395 51C111.995 48.5 112.295 46.125 112.295 43.875C112.295 40.325 111.47 37.2 109.82 34.5C108.17 31.75 105.77 29.625 102.62 28.125C99.4703 26.575 95.7453 25.8 91.4453 25.8C86.4453 25.8 82.0203 26.825 78.1703 28.875C74.3203 30.875 71.3203 33.675 69.1703 37.275C67.0703 40.825 66.0203 44.85 66.0203 49.35C66.0203 50.6212 66.1212 51.8378 66.3228 53H83.4275C83.0796 52.4288 82.8272 51.7621 82.6703 51H111.395ZM99.4028 53H99.5046L99.4703 52.95C99.4478 52.9667 99.4253 52.9834 99.4028 53ZM132.665 53H115.682L120.953 26.55H136.928L136.103 30.675C137.853 29.025 139.778 27.8 141.878 27C144.028 26.2 146.203 25.8 148.403 25.8C152.853 25.8 156.403 27 159.053 29.4C161.753 31.8 163.103 35.25 163.103 39.75C163.103 41.45 162.928 43.175 162.578 44.925L160.974 53H144.043L145.253 46.95C145.453 45.75 145.553 44.925 145.553 44.475C145.553 41.525 144.128 40.05 141.278 40.05C137.278 40.05 134.753 42.65 133.703 47.85L132.665 53ZM185.219 53H168.344L173.614 26.55H190.489L185.219 53ZM282.247 53H262.322C261.899 52.9316 261.441 52.865 260.947 52.8C257.997 52.35 255.497 51.825 253.447 51.225C251.397 50.575 249.597 49.475 248.047 47.925C246.497 46.325 245.722 44.125 245.722 41.325C245.722 36.275 247.872 32.425 252.172 29.775C256.472 27.125 262.022 25.8 268.822 25.8C271.822 25.8 274.697 26.075 277.447 26.625C280.247 27.125 282.722 27.875 284.872 28.875L279.022 40.425C275.472 38.375 271.397 37.35 266.797 37.35C264.997 37.35 263.672 37.55 262.822 37.95C262.022 38.35 261.622 38.825 261.622 39.375C261.622 39.925 262.047 40.35 262.897 40.65C263.747 40.9 265.197 41.2 267.247 41.55C270.147 42 272.597 42.55 274.597 43.2C276.647 43.8 278.422 44.9 279.922 46.5C281.472 48.05 282.247 50.2 282.247 52.95C282.247 52.9667 282.247 52.9833 282.247 53ZM237.658 53H218.333C220.12 51.7862 221.344 49.5445 222.004 46.275L225.979 26.55H242.929L237.658 53ZM211.497 53H192.942C193.011 51.7467 193.173 50.48 193.429 49.2L197.929 26.55H214.879L210.754 47.175C210.554 48.375 210.454 49.225 210.454 49.725C210.454 51.1834 210.802 52.275 211.497 53ZM86.0453 38.85C87.2953 37.85 88.8453 37.35 90.6953 37.35C92.5453 37.35 94.0203 37.85 95.1203 38.85C96.2203 39.8 96.7703 41.125 96.7703 42.825H83.3453C83.9453 41.125 84.8453 39.8 86.0453 38.85ZM176.914 21C178.664 22.5 180.989 23.25 183.889 23.25C187.139 23.25 189.739 22.375 191.689 20.625C193.689 18.875 194.689 16.575 194.689 13.725C194.689 11.425 193.814 9.575 192.064 8.175C190.314 6.725 187.989 6 185.089 6C181.889 6 179.289 6.875 177.289 8.625C175.289 10.375 174.289 12.575 174.289 15.225C174.289 17.525 175.164 19.45 176.914 21Z" fill="white"/>
<rect x="66" y="57" width="219" height="11" fill="url(#paint0_linear_1302_198)"/>
<defs>
<linearGradient id="paint0_linear_1302_198" x1="66" y1="62.5" x2="285" y2="62.5" gradientUnits="userSpaceOnUse">
<stop stop-color="#1C6D9A"/>
<stop offset="0.244346" stop-color="#248ECA"/>
<stop offset="1" stop-color="#80C3E8"/>
</linearGradient>
</defs>
</svg>
